<svg width="80" height="80" viewBox="0 0 80 80" fill="none" xmlns="http://www.w3.org/2000/svg">
<path d="M39.8515 0C17.9332 0 0 17.9332 0 39.8515C0 45.8292 1.22045 51.3835 3.61154 56.1657L3.98515 55.543V55.7921L17.9332 31.8812H9.09112C12.6693 18.1933 25.0826 7.9703 39.8515 7.9703C49.8144 7.9703 58.5319 12.3789 64.5096 19.5521L68.9929 12.3291C61.4211 4.75727 51.0099 0 39.8515 0ZM35.8663 15.9406V23.9109H31.8812C31.7567 23.9051 31.632 23.9051 31.5076 23.9109C30.5167 24.0043 29.5966 24.465 28.9283 25.2025C28.26 25.94 27.8917 26.9008 27.896 27.896V39.8515C27.8961 40.9084 28.316 41.922 29.0634 42.6693C29.8107 43.4166 30.8243 43.8365 31.8812 43.8366H43.8366V47.8218H27.896V55.7921H35.8663V63.7624H43.8366V55.7921H47.8218C48.8787 55.792 49.8923 55.3721 50.6396 54.6247C51.3869 53.8774 51.8068 52.8638 51.8069 51.8069V39.8515C51.8068 38.7946 51.3869 37.781 50.6396 37.0337C49.8923 36.2863 48.8787 35.8664 47.8218 35.8663H35.8663V31.8812H51.8069V23.9109H43.8366V15.9406H35.8663ZM76.0914 23.5373L75.7178 24.16V23.9109L61.7698 47.8218H70.6119C67.0337 61.5097 54.6203 71.7327 39.8515 71.7327C29.8886 71.7327 21.1711 67.3241 15.1934 60.1508L10.7101 67.3739C18.2819 74.9457 28.6931 79.703 39.8515 79.703C61.7698 79.703 79.703 61.7698 79.703 39.8515C79.703 33.8738 78.4825 28.3195 76.0914 23.5373Z" fill="#742DD2"/>
</svg>
